<svg xmlns="http://www.w3.org/2000/svg" xmlns:xlink="http://www.w3.org/1999/xlink" viewBox="0 0 1500 1000" width="1500" height="1000" preserveAspectRatio="xMidYMid meet" style="width: 100%; height: 100%; transform: translate3d(0px, 0px, 0px); content-visibility: visible;"><defs><clipPath id="__lottie_element_74107"><rect width="1500" height="1000" x="0" y="0"></rect></clipPath></defs><g clip-path="url(#__lottie_element_74107)"><g transform="matrix(1.399999976158142,0,0,1.399999976158142,939.3078002929688,675.3577880859375)" opacity="1" style="display: block;"><g opacity="1" transform="matrix(1,0,0,1,0,0)"><path stroke-linecap="round" stroke-linejoin="round" fill-opacity="0" stroke="rgb(27,28,59)" stroke-opacity="1" stroke-width="25" d=" M39.3390007019043,99.7959976196289 C39.3390007019043,99.7959976196289 -39.3390007019043,-99.7959976196289 -39.3390007019043,-99.7959976196289"></path></g></g><g transform="matrix(1.399999976158142,0,0,1.399999976158142,651.0183715820312,674.0571899414062)" opacity="1" style="display: block;"><g opacity="1" transform="matrix(1,0,0,1,0,0)"><path stroke-linecap="round" stroke-linejoin="round" fill-opacity="0" stroke="rgb(27,28,59)" stroke-opacity="1" stroke-width="25" d=" M0,98.86699676513672 C0,98.86699676513672 0,-98.86699676513672 0,-98.86699676513672"></path></g></g><g transform="matrix(1.399999976158142,0,0,1.399999976158142,829.4539794921875,379.052001953125)" opacity="1" style="display: block;"><g opacity="1" transform="matrix(1,0,0,1,0,0)"><path stroke-linecap="round" stroke-linejoin="round" fill-opacity="0" stroke="rgb(27,28,59)" stroke-opacity="1" stroke-width="25" d=" M-127.4540023803711,-100.26499938964844 C-127.4540023803711,-100.26499938964844 -127.4540023803711,100.26499938964844 -127.4540023803711,100.26499938964844 C-127.4540023803711,100.26499938964844 27.190000534057617,100.26499938964844 27.190000534057617,100.26499938964844 C82.56500244140625,100.26499938964844 127.4540023803711,55.375 127.4540023803711,0 C127.4540023803711,0 127.4540023803711,0 127.4540023803711,0 C127.4540023803711,-55.375 82.56500244140625,-100.26499938964844 27.190000534057617,-100.26499938964844 C27.190000534057617,-100.26499938964844 -127.4540023803711,-100.26499938964844 -127.4540023803711,-100.26499938964844z"></path></g></g><g transform="matrix(1.399999976158142,0,0,1.399999976158142,939.3078002929688,675.3577880859375)" opacity="1" style="display: block;"><g opacity="1" transform="matrix(1,0,0,1,0,0)"><path stroke-linecap="round" stroke-linejoin="round" fill-opacity="0" stroke="rgb(42,48,115)" stroke-opacity="1" stroke-width="25" d=" M39.3390007019043,99.7959976196289 C39.3390007019043,99.7959976196289 -39.3390007019043,-99.7959976196289 -39.3390007019043,-99.7959976196289"></path></g></g><g transform="matrix(1.399999976158142,0,0,1.399999976158142,651.0183715820312,674.0571899414062)" opacity="1" style="display: block;"><g opacity="1" transform="matrix(1,0,0,1,0,0)"><path stroke-linecap="round" stroke-linejoin="round" fill-opacity="0" stroke="rgb(42,48,115)" stroke-opacity="1" stroke-width="25" d=" M0,98.86699676513672 C0,98.86699676513672 0,-98.86699676513672 0,-98.86699676513672"></path></g></g><g transform="matrix(1.399999976158142,0,0,1.399999976158142,829.4539794921875,379.052001953125)" opacity="1" style="display: block;"><g opacity="1" transform="matrix(1,0,0,1,0,0)"><path stroke-linecap="round" stroke-linejoin="round" fill-opacity="0" stroke="rgb(42,48,115)" stroke-opacity="1" stroke-width="25" d=" M-127.4540023803711,-100.26499938964844 C-127.4540023803711,-100.26499938964844 -127.4540023803711,100.26499938964844 -127.4540023803711,100.26499938964844 C-127.4540023803711,100.26499938964844 27.190000534057617,100.26499938964844 27.190000534057617,100.26499938964844 C82.56500244140625,100.26499938964844 127.4540023803711,55.375 127.4540023803711,0 C127.4540023803711,0 127.4540023803711,0 127.4540023803711,0 C127.4540023803711,-55.375 82.56500244140625,-100.26499938964844 27.190000534057617,-100.26499938964844 C27.190000534057617,-100.26499938964844 -127.4540023803711,-100.26499938964844 -127.4540023803711,-100.26499938964844z"></path></g></g><g transform="matrix(1.399999976158142,0,0,1.399999976158142,939.3078002929688,675.3577880859375)" opacity="1" style="display: block;"><g opacity="1" transform="matrix(1,0,0,1,0,0)"><path stroke-linecap="round" stroke-linejoin="round" fill-opacity="0" stroke="rgb(80,135,243)" stroke-opacity="1" stroke-width="25" d=" M39.3390007019043,99.7959976196289 C39.3390007019043,99.7959976196289 -39.3390007019043,-99.7959976196289 -39.3390007019043,-99.7959976196289"></path></g></g><g transform="matrix(1.399999976158142,0,0,1.399999976158142,651.0183715820312,674.0571899414062)" opacity="1" style="display: block;"><g opacity="1" transform="matrix(1,0,0,1,0,0)"><path stroke-linecap="round" stroke-linejoin="round" fill-opacity="0" stroke="rgb(80,135,243)" stroke-opacity="1" stroke-width="25" d=" M0,47.35900115966797 C0,-11.229000091552734 0,-98.86699676513672 0,-98.86699676513672"></path></g></g><g transform="matrix(1.399999976158142,0,0,1.399999976158142,829.4539794921875,379.052001953125)" opacity="1" style="display: block;"><g opacity="1" transform="matrix(1,0,0,1,0,0)"><path stroke-linecap="round" stroke-linejoin="round" fill-opacity="0" stroke="rgb(80,135,243)" stroke-opacity="1" stroke-width="25" d=" M-127.4540023803711,-80.30500030517578 C-127.4540023803711,-29.583999633789062 -127.4540023803711,100.26499938964844 -127.4540023803711,100.26499938964844 C-127.4540023803711,100.26499938964844 27.190000534057617,100.26499938964844 27.190000534057617,100.26499938964844 C82.56500244140625,100.26499938964844 127.4540023803711,55.375 127.4540023803711,0 C127.4540023803711,0 127.4540023803711,0 127.4540023803711,0 C127.4540023803711,-55.375 82.56500244140625,-100.26499938964844 27.190000534057617,-100.26499938964844 C27.190000534057617,-100.26499938964844 -127.4540023803711,-100.26499938964844 -127.4540023803711,-100.26499938964844"></path></g></g></g></svg>
