<svg xmlns="http://www.w3.org/2000/svg" xmlns:xlink="http://www.w3.org/1999/xlink" viewBox="0 0 1500 1000" width="1500" height="1000" preserveAspectRatio="xMidYMid meet" style="width: 100%; height: 100%; transform: translate3d(0px, 0px, 0px); content-visibility: visible;"><defs><clipPath id="__lottie_element_74571"><rect width="1500" height="1000" x="0" y="0"></rect></clipPath></defs><g clip-path="url(#__lottie_element_74571)"><g transform="matrix(1,0,0,1,748.8350219726562,527.1060180664062)" opacity="1" style="display: block;"><g opacity="1" transform="matrix(1,0,0,1,0,0)"><path stroke-linecap="round" stroke-linejoin="round" fill-opacity="0" stroke="rgb(27,28,59)" stroke-opacity="1" stroke-width="41" d=" M0,201.1909942626953 C0,201.1909942626953 0,-201.1909942626953 0,-201.1909942626953"></path></g></g><g transform="matrix(1,0,0,1,750.5040283203125,308.843994140625)" opacity="1" style="display: block;"><g opacity="1" transform="matrix(1,0,0,1,0,0)"><path stroke-linecap="round" stroke-linejoin="round" fill-opacity="0" stroke="rgb(27,28,59)" stroke-opacity="1" stroke-width="41" d=" M-163.625,0 C-163.625,0 163.625,0 163.625,0"></path></g></g><g transform="matrix(1,0,0,1,748.8350219726562,527.1060180664062)" opacity="1" style="display: block;"><g opacity="1" transform="matrix(1,0,0,1,0,0)"><path stroke-linecap="round" stroke-linejoin="round" fill-opacity="0" stroke="rgb(42,49,115)" stroke-opacity="1" stroke-width="41" d=" M0,201.1909942626953 C0,201.1909942626953 0,108.177001953125 0,11.58899974822998"></path></g></g><g transform="matrix(1,0,0,1,750.5040283203125,308.843994140625)" opacity="1" style="display: block;"><g opacity="1" transform="matrix(1,0,0,1,0,0)"><path stroke-linecap="round" stroke-linejoin="round" fill-opacity="0" stroke="rgb(42,49,115)" stroke-opacity="1" stroke-width="41" d=" M-163.625,0 C-163.625,0 -39.099998474121094,0 56.32099914550781,0"></path></g></g><g transform="matrix(1,0,0,1,748.8350219726562,527.1060180664062)" opacity="1" style="display: block;"><g opacity="1" transform="matrix(1,0,0,1,0,0)"><path stroke-linecap="round" stroke-linejoin="round" fill-opacity="0" stroke="rgb(80,135,243)" stroke-opacity="1" stroke-width="41" d=" M0,201.1909942626953 C0,201.1909942626953 0,154.39100646972656 0,92.71099853515625"></path></g></g><g transform="matrix(1,0,0,1,750.5040283203125,308.843994140625)" opacity="1" style="display: block;"><g opacity="1" transform="matrix(1,0,0,1,0,0)"><path stroke-linecap="round" stroke-linejoin="round" fill-opacity="0" stroke="rgb(80,135,243)" stroke-opacity="1" stroke-width="41" d="M0 0"></path></g></g></g></svg>
