<svg xmlns="http://www.w3.org/2000/svg" xmlns:xlink="http://www.w3.org/1999/xlink" viewBox="0 0 1500 1000" width="1500" height="1000" preserveAspectRatio="xMidYMid meet" style="width: 100%; height: 100%; transform: translate3d(0px, 0px, 0px); content-visibility: visible;"><defs><clipPath id="__lottie_element_90134"><rect width="1500" height="1000" x="0" y="0"></rect></clipPath></defs><g clip-path="url(#__lottie_element_90134)"><g transform="matrix(1,0,0,1,793.2349853515625,497.47698974609375)" opacity="1" style="display: block;"><g opacity="1" transform="matrix(1,0,0,1,0,0)"><path stroke-linecap="round" stroke-linejoin="round" fill-opacity="0" stroke="rgb(27,28,59)" stroke-opacity="1" stroke-width="25" d=" M-139.46800231933594,-206.2429962158203 C-139.46800231933594,-206.2429962158203 -139.46800231933594,66.7750015258789 -139.46800231933594,66.7750015258789 C-139.46800231933594,143.80099487304688 -77.0260009765625,206.2429962158203 0,206.2429962158203 C0,206.2429962158203 0,206.2429962158203 0,206.2429962158203 C77.0260009765625,206.2429962158203 139.46800231933594,143.80099487304688 139.46800231933594,66.7750015258789 C139.46800231933594,66.7750015258789 139.46800231933594,-206.2429962158203 139.46800231933594,-206.2429962158203"></path></g></g><g transform="matrix(1,0,0,1,793.2349853515625,497.47698974609375)" opacity="1" style="display: block;"><g opacity="1" transform="matrix(1,0,0,1,0,0)"><path stroke-linecap="round" stroke-linejoin="round" fill-opacity="0" stroke="rgb(42,49,115)" stroke-opacity="1" stroke-width="25" d=" M-139.46800231933594,-206.2429962158203 C-139.46800231933594,-206.2429962158203 -139.46800231933594,66.7750015258789 -139.46800231933594,66.7750015258789 C-139.46800231933594,143.80099487304688 -77.0260009765625,206.2429962158203 0,206.2429962158203 C0,206.2429962158203 0,206.2429962158203 0,206.2429962158203 C77.0260009765625,206.2429962158203 139.46800231933594,143.80099487304688 139.46800231933594,66.7750015258789 C139.46800231933594,66.7750015258789 139.46800231933594,-206.2429962158203 139.46800231933594,-206.2429962158203"></path></g></g><g transform="matrix(1,0,0,1,793.2349853515625,497.47698974609375)" opacity="1" style="display: block;"><g opacity="1" transform="matrix(1,0,0,1,0,0)"><path stroke-linecap="round" stroke-linejoin="round" fill-opacity="0" stroke="rgb(80,135,243)" stroke-opacity="1" stroke-width="25" d=" M-139.46800231933594,-206.2429962158203 C-139.46800231933594,-206.2429962158203 -139.46800231933594,66.7750015258789 -139.46800231933594,66.7750015258789 C-139.46800231933594,143.80099487304688 -77.0260009765625,206.2429962158203 0,206.2429962158203 C0,206.2429962158203 0,206.2429962158203 0,206.2429962158203 C77.0260009765625,206.2429962158203 139.46800231933594,143.80099487304688 139.46800231933594,66.7750015258789 C139.46800231933594,66.7750015258789 139.46800231933594,-206.2429962158203 139.46800231933594,-206.2429962158203"></path></g></g></g></svg>