<svg xmlns="http://www.w3.org/2000/svg" xmlns:xlink="http://www.w3.org/1999/xlink" viewBox="0 0 1500 1000" width="1500"
    height="1000" preserveAspectRatio="xMidYMid meet"
    style="width: 100%; height: 100%; transform: translate3d(0px, 0px, 0px); content-visibility: visible;">
    <defs>
        <clipPath id="__lottie_element_74638">
            <rect width="1500" height="1000" x="0" y="0"></rect>
        </clipPath>
    </defs>
    <g clip-path="url(#__lottie_element_74638)">
        <g transform="matrix(1.5800000429153442,0,0,1.5800000429153442,734.5889892578125,490.8340148925781)" opacity="1"
            style="display: block;">
            <g opacity="1" transform="matrix(1,0,0,1,0,0)">
                <path stroke-linecap="round" stroke-linejoin="miter" fill-opacity="0" stroke-miterlimit="4"
                    stroke="rgb(27,28,60)" stroke-opacity="1" stroke-width="25"
                    d=" M96.37000274658203,-131.14100646972656 C77.15899658203125,-159.95700073242188 22.082000732421875,-155.28500366210938 13.03600025177002,-154.30599975585938 C12.055999755859375,-154.1999969482422 11.074000358581543,-154.12600708007812 10.092000007629395,-154.04100036621094 C-28.645000457763672,-150.7010040283203 -67.74099731445312,-103.08000183105469 -67.74099731445312,-76.447998046875 C-67.74099731445312,-43.47100067138672 -48.27199935913086,-32.347999572753906 13.706999778747559,-12.482000350952148 C74.89299774169922,6.986000061035156 105.08799743652344,27.249000549316406 105.08799743652344,74.927001953125 C105.08799743652344,123.79499816894531 61.78099822998047,155.18299865722656 2.9790000915527344,155.18299865722656 C-52.24700164794922,155.18299865722656 -91.18299865722656,124.98699951171875 -105.08799743652344,77.30999755859375">
                </path>
            </g>
        </g>
        <g transform="matrix(1.5800000429153442,0,0,1.5800000429153442,734.5889892578125,490.8340148925781)" opacity="1"
            style="display: block;">
            <g opacity="1" transform="matrix(1,0,0,1,0,0)">
                <path stroke-linecap="round" stroke-linejoin="miter" fill-opacity="0" stroke-miterlimit="4"
                    stroke="rgb(42,49,115)" stroke-opacity="1" stroke-width="25"
                    d=" M96.37000274658203,-131.14100646972656 C77.15899658203125,-159.95700073242188 22.082000732421875,-155.28500366210938 13.03600025177002,-154.30599975585938 C12.055999755859375,-154.1999969482422 11.074000358581543,-154.12600708007812 10.092000007629395,-154.04100036621094 C-28.645000457763672,-150.7010040283203 -67.74099731445312,-103.08000183105469 -67.74099731445312,-76.447998046875 C-67.74099731445312,-43.47100067138672 -48.27199935913086,-32.347999572753906 13.706999778747559,-12.482000350952148 C74.89299774169922,6.986000061035156 105.08799743652344,27.249000549316406 105.08799743652344,74.927001953125 C105.08799743652344,123.79499816894531 61.78099822998047,155.18299865722656 2.9790000915527344,155.18299865722656 C-52.24700164794922,155.18299865722656 -91.18299865722656,124.98699951171875 -105.08799743652344,77.30999755859375">
                </path>
            </g>
        </g>
        <g transform="matrix(1.5800000429153442,0,0,1.5800000429153442,734.5889892578125,490.8340148925781)" opacity="1"
            style="display: block;">
            <g opacity="1" transform="matrix(1,0,0,1,0,0)">
                <path stroke-linecap="round" stroke-linejoin="miter" fill-opacity="0" stroke-miterlimit="4"
                    stroke="rgb(80,135,243)" stroke-opacity="1" stroke-width="25"
                    d=" M77.67500305175781,-146.52000427246094 C53.56100082397461,-157.9429931640625 19.93000030517578,-155.052001953125 13.03600025177002,-154.30599975585938 C12.055999755859375,-154.1999969482422 11.074000358581543,-154.12600708007812 10.092000007629395,-154.04100036621094 C-28.645000457763672,-150.7010040283203 -67.74099731445312,-103.08000183105469 -67.74099731445312,-76.447998046875 C-67.74099731445312,-43.47100067138672 -48.27199935913086,-32.347999572753906 13.706999778747559,-12.482000350952148 C74.89299774169922,6.986000061035156 105.08799743652344,27.249000549316406 105.08799743652344,74.927001953125 C105.08799743652344,123.79499816894531 61.78099822998047,155.18299865722656 2.9790000915527344,155.18299865722656 C-52.24700164794922,155.18299865722656 -91.18299865722656,124.98699951171875 -105.08799743652344,77.30999755859375">
                </path>
            </g>
        </g>
    </g>
</svg>